<svg id="Layer_2" data-name="Layer 2" xmlns="http://www.w3.org/2000/svg" xmlns:xlink="http://www.w3.org/1999/xlink" viewBox="0 0 500 500"><defs><style>.cls-1,.cls-2{fill:none;stroke-width:2px;}.cls-1{stroke:#d4145a;}.cls-1,.cls-2,.cls-4{stroke-miterlimit:10;}.cls-2{stroke:#74fff5;}.cls-3{opacity:0.75;fill:url(#linear-gradient);}.cls-4{fill:#6df1d8;stroke:#fff;stroke-width:5px;}</style><linearGradient id="linear-gradient" x1="87.5" y1="282.5" x2="441.5" y2="282.5" gradientUnits="userSpaceOnUse"><stop offset="0" stop-color="#fea9ff"/><stop offset="0.06" stop-color="#fea3fb"/><stop offset="0.15" stop-color="#fc91f0"/><stop offset="0.25" stop-color="#fb73dd"/><stop offset="0.36" stop-color="#f84bc3"/><stop offset="0.47" stop-color="#f51fa7"/><stop offset="0.54" stop-color="#da3eb6"/><stop offset="0.7" stop-color="#a380d4"/><stop offset="0.84" stop-color="#7ab0ea"/><stop offset="0.94" stop-color="#61cdf8"/><stop offset="1" stop-color="#58d8fd"/></linearGradient></defs><title>Artboard 1</title><polygon class="cls-1" points="119 115 167 398 453 232 119 115"/><polygon class="cls-2" points="73 187 423 139 242 418 73 187"/><polygon class="cls-3" points="87.5 152.5 441.5 175.5 209.5 412.5 87.5 152.5"/><path class="cls-4" d="M210,184.29q21,0,37.1,6t24.7,17L242,301.88q-19.4,22.41-63.6,22.41H111l44.2-140Zm-53.8,111.2h22.2q20.4,0,32-7.8l21.6-68q-10.2-6.6-28-6.6H182Z"/><path class="cls-4" d="M361.56,320.68a232.72,232.72,0,0,1-55.8,6.4q-31.59,0-55-6.6l15.4-48.79h34.6l-8.4,26.6h40.4l36-114h36Z"/></svg>